<svg width="84" height="84" viewBox="0 0 84 84" fill="none" xmlns="http://www.w3.org/2000/svg">
<path d="M41.9998 84C64.9351 84 84 64.9764 84 42C84 19.0647 64.894 0 41.9587 0C18.9822 0 0 19.0647 0 42C0 64.9764 19.0234 84 41.9998 84ZM41.9998 56.0412C29.6057 56.0412 20.0528 60.447 15.894 65.3882C10.3764 59.2116 7.04096 51.0176 7.04096 42C7.04096 22.6059 22.5235 7.00003 41.9587 7.00003C61.3527 7.00003 76.9585 22.6059 77 42C77 51.0589 73.6646 59.2529 68.1057 65.4293C63.9469 60.4881 54.3939 56.0412 41.9998 56.0412ZM41.9998 49.0411C49.9057 49.1235 56.1234 42.3705 56.1234 33.5177C56.1234 25.2 49.8646 18.2824 41.9998 18.2824C34.094 18.2824 27.794 25.2 27.8764 33.5177C27.9175 42.3705 34.0528 48.9587 41.9998 49.0411Z" fill="black"/>
</svg>
