<svg width="18" height="18" viewBox="0 0 18 18" fill="none" xmlns="http://www.w3.org/2000/svg">
<path d="M6.9118 2.62207L7.54729 3.76077C8.12079 4.78839 7.89057 6.13643 6.98732 7.03971C6.98732 7.03971 5.8918 8.1354 7.87816 10.1218C9.8639 12.1076 10.9603 11.0127 10.9603 11.0127C11.8636 10.1094 13.2116 9.87921 14.2392 10.4527L15.3779 11.0882C16.9297 11.9542 17.1129 14.1303 15.749 15.4942C14.9294 16.3138 13.9254 16.9515 12.8155 16.9936C10.9472 17.0644 7.77415 16.5916 4.59129 13.4087C1.40844 10.2258 0.935583 7.05283 1.00642 5.18447C1.04849 4.07459 1.6862 3.07058 2.50577 2.25102C3.8697 0.887086 6.04581 1.07035 6.9118 2.62207Z" stroke="#15011B" stroke-width="1.8" stroke-linecap="round"/>
</svg>
