<svg width="26" height="26" viewBox="0 0 26 26" fill="none" xmlns="http://www.w3.org/2000/svg">
<path d="M13 0C19.5492 0 24.967 4.84289 25.8682 11.1429H25.8719L25.8753 11.1925C25.9575 11.7832 26 12.3867 26 13C26 13.6132 25.9575 14.2166 25.8753 14.8073L25.8719 14.8571H17.6518C17.5354 14.9286 17.4091 14.9916 17.2727 15.0441L15.6633 15.6633L15.0441 17.2727C14.3242 19.1446 11.6759 19.1446 10.9559 17.2727L10.3369 15.6633L8.72724 15.0441C6.85538 14.3241 6.85552 11.6758 8.72737 10.9559L10.3367 10.3367L10.9559 8.72737L10.991 8.64094C11.746 6.88417 14.254 6.88425 15.009 8.64094L15.0441 8.72724L15.6633 10.3369L17.2727 10.9559C17.4092 11.0083 17.5354 11.0714 17.652 11.1429H22.1987C21.3369 6.85049 17.5462 3.61723 13 3.61723C7.81807 3.61723 3.61723 7.81807 3.61723 13C3.61723 18.1819 7.81807 22.3828 13 22.3828C16.0957 22.3828 18.8412 20.8835 20.55 18.5714H24.7485C22.6621 22.9634 18.1858 26 13 26C5.8203 26 0 20.1797 0 13C0 5.8203 5.8203 0 13 0ZM13.012 9.50898C13.0078 9.49803 12.9923 9.49803 12.9881 9.50898L12.2913 11.3203L12.225 11.4914C12.1655 11.6418 12.1231 11.7348 12.0652 11.8163C11.9967 11.9125 11.9125 11.9967 11.8163 12.0652C11.7077 12.1424 11.5785 12.192 11.3203 12.2913L9.51973 12.9839L9.50898 12.9881C9.49803 12.9923 9.49803 13.0078 9.50898 13.012L11.3203 13.7087C11.5785 13.8079 11.7077 13.8576 11.8163 13.9348C11.9125 14.0032 11.9967 14.0875 12.0652 14.1837C12.1424 14.2923 12.192 14.4215 12.2913 14.6796L12.9881 16.4912C12.9918 16.5007 13.0041 16.5018 13.0099 16.4946L13.012 16.4912L13.0161 16.4803L13.7087 14.6796C13.808 14.4214 13.8576 14.2923 13.9348 14.1837C14.0032 14.0875 14.0875 14.0032 14.1837 13.9348C14.2652 13.877 14.3583 13.8346 14.5085 13.7751L14.6796 13.7087L16.4803 13.0161L16.4912 13.012C16.5007 13.0083 16.5018 12.9959 16.4946 12.9901L16.4912 12.9881L14.6796 12.2913C14.4215 12.192 14.2923 12.1424 14.1837 12.0652C14.0875 11.9967 14.0032 11.9125 13.9348 11.8163C13.877 11.7348 13.8346 11.6418 13.7751 11.4914L13.7087 11.3203L13.012 9.50898Z" fill="#E1E1E1"/>
</svg>
